<?xml version="1.0" encoding="UTF-8" standalone="no"?>
<svg
   version="1.1"
   width="141.23242"
   height="299.46484"
   id="svg4"
   sodipodi:docname="CleanBreakIcon.svg"
   inkscape:version="1.4 (86a8ad7, 2024-10-11)"
   inkscape:export-filename="CleanBreakIcon.png"
   inkscape:export-xdpi="96"
   inkscape:export-ydpi="96"
   xmlns:inkscape="http://www.inkscape.org/namespaces/inkscape"
   xmlns:sodipodi="http://sodipodi.sourceforge.net/DTD/sodipodi-0.dtd"
   xmlns:xlink="http://www.w3.org/1999/xlink"
   xmlns="http://www.w3.org/2000/svg"
   xmlns:svg="http://www.w3.org/2000/svg">
  <defs
     id="defs4">
    <linearGradient
       id="linearGradient4"
       inkscape:collect="always">
      <stop
         style="stop-color:#34c9b3;stop-opacity:1;"
         offset="0"
         id="stop5" />
      <stop
         style="stop-color:#34c9b3;stop-opacity:1;"
         offset="1"
         id="stop4" />
    </linearGradient>
    <clipPath
       clipPathUnits="userSpaceOnUse"
       id="clipPath134">
      <path
         id="path134"
         style="fill:#ff0000;fill-opacity:1;fill-rule:nonzero;stroke:none"
         d="M -85.41406,0.535156 V 232.4375 c 8.56538,-6.5791 16.93624,-13.41265 25.2207,-20.33984 19.59785,-16.79684 38.84664,-33.99651 58.19922,-51.07422 18.89871,-16.72007 37.74069,-33.50623 56.82422,-50.01563 0.32706,-0.28537 0.66066,-0.56294 0.98828,-0.84765 V 0.535156 Z M 55.81836,142.38086 c -13.95886,12.23379 -27.85962,24.53449 -41.76172,36.83203 -19.51496,17.22098 -38.92341,34.56688 -58.69141,51.49805 -13.24073,11.06454 -26.64465,21.96268 -40.77929,31.87695 V 300 H 55.81836 Z" />
    </clipPath>
    <linearGradient
       inkscape:collect="always"
       xlink:href="#linearGradient4"
       id="linearGradient5"
       x1="-2.9078143"
       y1="2.9543357"
       x2="-9.3768911"
       y2="300.53186"
       gradientUnits="userSpaceOnUse" />
  </defs>
  <sodipodi:namedview
     id="namedview4"
     pagecolor="#505050"
     bordercolor="#ffffff"
     borderopacity="1"
     inkscape:showpageshadow="0"
     inkscape:pageopacity="0"
     inkscape:pagecheckerboard="1"
     inkscape:deskcolor="#505050"
     inkscape:zoom="1.0930567"
     inkscape:cx="509.58015"
     inkscape:cy="45.285848"
     inkscape:window-width="1920"
     inkscape:window-height="991"
     inkscape:window-x="-9"
     inkscape:window-y="-9"
     inkscape:window-maximized="1"
     inkscape:current-layer="svg4"
     showguides="true"
     inkscape:lockguides="false"
     borderlayer="true" />
  <path
     d="M 0.14294775,0.54320146 C -1.0774016,11.584261 -18.16838,43.662095 0.15850387,0.53607323 -0.06213703,20.591475 5.3747463,51.80223 11,71 l 0.600586,2.081055 C 23.707685,113.93442 69.145812,139.50967 52,198 c -13.766388,35.23509 -33.451564,44.8704 -67,102 -2.506418,-5.53664 2.315173,-3.92545 -0.04405,-0.0241 -15.104632,-45.125 -70.812782,-74.12442 -70.368299,-132.46439 0.732975,-35.3478 23.880835,-71.428918 54.310788,-113.585689 5.05631,-7.039361 9.646282,-14.334941 14.15625,-21.734375 1.18072,-1.937045 2.370875,-3.868438 3.578124,-5.789062 C -7.5444583,17.028027 -5.5994438,11.858592 0.14294775,0.54320146 Z M -26.375,121.375 C -35.400873,137.17712 -44.127861,152.71411 -50,170 c -5.076672,14.55918 -7.55863,37.44761 7.793457,65.81689 4.313144,7.80416 8.829175,15.49425 13.380859,23.16114 4.443676,7.49065 8.299547,15.00565 11.599122,23.06103 0.987832,2.38464 2.033265,4.67472 3.226562,6.96094 0.917569,-1.95791 1.833942,-3.91638 2.75,-5.875 l 0.924561,-1.96704 c 2.0805026,-4.44139 4.1109081,-8.90221 6.1105953,-13.38062 C 15.936583,230.78815 30.218795,201.32699 8.6875,158.9375 -3.8447799,138.49375 -12.718747,122.33881 -11,93 c -6.922495,13.56605 -6.892826,13.55199 -15.375,28.375 z"
     fill="#34c9b3"
     id="path1"
     transform="translate(85.41406,-0.535156)"
     sodipodi:nodetypes="cccccccccscccccccccccccc"
     clip-path="url(#clipPath134)"
     style="fill:url(#linearGradient5);fill-opacity:1;stroke:#000000;stroke-opacity:0" />
</svg>
